<svg width="101" height="102" viewBox="0 0 101 102" fill="none" xmlns="http://www.w3.org/2000/svg">
<g clip-path="url(#clip0_2279_460)">
<path d="M50.4432 99.0862C38.1939 99.0862 26.9623 96.8436 18.2695 89.4195C7.44151 80.1704 0.554688 66.3533 0.554688 50.943C0.554688 23.1621 22.9347 0.560547 50.4432 0.560547C77.9517 0.560547 100.332 23.1621 100.332 50.943C100.332 66.3544 93.4448 80.1704 82.6168 89.4195C73.9251 96.8447 62.6924 99.0862 50.4432 99.0862Z" fill="#D6D6D6"/>
<path d="M50.4428 68.5329C37.7168 68.5329 27.3633 58.0769 27.3633 45.226C27.3633 32.374 37.7168 21.918 50.4428 21.918C63.1688 21.918 73.5212 32.374 73.5212 45.226C73.5212 58.0769 63.1688 68.5329 50.4428 68.5329Z" fill="#A5A4A4"/>
<path d="M50.4433 101.325C38.6774 101.325 27.2485 97.1002 18.2619 89.4287C17.5435 88.8151 17.2863 87.812 17.62 86.9241C22.7652 73.2436 35.9568 64.0527 50.4433 64.0527C64.9298 64.0527 78.1214 73.2436 83.2666 86.9241C83.6003 87.812 83.3431 88.8151 82.6247 89.4287C73.6381 97.1002 62.2092 101.325 50.4433 101.325Z" fill="#A5A4A4"/>
</g>
<defs>
<clipPath id="clip0_2279_460">
<rect width="101" height="102" fill="white"/>
</clipPath>
</defs>
</svg>
